<svg width="96" height="96" viewBox="0 0 96 96" fill="none" xmlns="http://www.w3.org/2000/svg">
  <rect x="10" y="10" width="76" height="76" rx="22" fill="#1E1B4B"/>
  <rect x="18" y="18" width="60" height="60" rx="18" fill="url(#paint0_radial_2_1)"/>
  <path d="M36 26C36 24.8954 36.8954 24 38 24H58C59.1046 24 60 24.8954 60 26V70C60 71.1046 59.1046 72 58 72H38C36.8954 72 36 71.1046 36 70V26Z" fill="#0EA5E9"/>
  <rect x="32" y="36" width="8" height="8" rx="4" fill="white" opacity="0.9"/>
  <rect x="56" y="36" width="8" height="8" rx="4" fill="white" opacity="0.9"/>
  <rect x="44" y="50" width="8" height="8" rx="4" fill="white" opacity="0.9"/>
  <defs>
    <radialGradient id="paint0_radial_2_1" cx="0" cy="0" r="1" gradientUnits="userSpaceOnUse" gradientTransform="translate(48 26) rotate(90) scale(54)">
      <stop stop-color="#312E81"/>
      <stop offset="1" stop-color="#0F172A"/>
    </radialGradient>
  </defs>
</svg>






